<?xml version="1.0" standalone="no"?>
<!DOCTYPE svg PUBLIC "-//W3C//DTD SVG 20010904//EN"
 "http://www.w3.org/TR/2001/REC-SVG-20010904/DTD/svg10.dtd">
<svg version="1.0" xmlns="http://www.w3.org/2000/svg"
 width="512.000000pt" height="512.000000pt" viewBox="0 0 512.000000 512.000000"
 preserveAspectRatio="xMidYMid meet">

<g transform="translate(0.000000,512.000000) scale(0.100000,-0.100000)"
fill="#000000" stroke="none">
<path d="M3205 5108 c-30 -16 -45 -39 -45 -68 0 -15 16 -97 35 -183 19 -86 35
-159 35 -162 0 -3 -10 -5 -22 -5 -13 0 -41 -9 -64 -19 -106 -48 -160 -138
-152 -253 l5 -68 -112 0 c-139 0 -189 -15 -250 -77 -80 -79 -96 -199 -40 -301
l26 -48 -28 -49 c-23 -42 -28 -62 -28 -120 0 -58 5 -78 28 -120 l28 -49 -26
-48 c-47 -85 -44 -188 8 -261 l19 -28 -25 -48 c-15 -26 -29 -66 -33 -89 l-7
-42 -113 0 -114 0 -351 175 c-200 101 -377 183 -412 192 -75 19 -170 13 -244
-15 -28 -11 -171 -94 -317 -186 l-266 -166 -339 0 c-187 0 -347 -3 -356 -6
-44 -17 -45 -27 -45 -684 l0 -621 25 -24 24 -25 485 0 485 0 3 -758 c3 -668 5
-761 19 -792 24 -52 65 -97 118 -128 l46 -27 994 -3 c1094 -3 1046 -5 1123 58
20 17 48 53 62 82 l26 52 0 814 0 815 28 -6 c98 -20 217 -29 297 -23 280 21
509 124 706 316 194 190 301 410 330 680 l12 110 139 0 140 0 29 29 29 29 0
626 0 625 -24 28 -24 28 -337 5 -337 5 -60 95 c-67 107 -118 164 -196 217 -35
24 -51 42 -47 52 13 46 85 384 85 404 0 28 -32 65 -64 73 -13 3 -119 -13 -235
-37 l-211 -42 -207 42 c-228 45 -229 45 -258 29z m318 -218 l147 -29 151 30
c83 17 153 29 155 26 2 -2 -7 -54 -21 -115 -14 -61 -25 -114 -25 -117 0 -4
-10 -3 -22 1 -13 4 -131 10 -263 13 l-239 6 -17 75 c-27 118 -31 140 -21 140
5 0 75 -13 155 -30z m398 -386 c123 -36 186 -90 279 -238 l70 -112 0 -112 c0
-128 7 -122 -98 -97 -153 36 -301 151 -389 301 -23 39 -50 77 -59 85 -13 11
-71 15 -266 19 l-250 5 -24 28 c-31 37 -31 81 1 112 l24 25 329 0 c270 0 338
-3 383 -16z m-795 -348 c36 -30 39 -86 6 -119 -21 -21 -33 -22 -182 -25 l-160
-3 -30 30 c-39 38 -39 74 -1 112 l29 29 156 0 c149 0 156 -1 182 -24z m525
-28 c111 -174 243 -275 438 -338 67 -22 89 -34 109 -61 15 -19 70 -86 122
-149 120 -143 152 -190 200 -293 190 -415 51 -908 -330 -1164 -262 -176 -616
-205 -905 -74 -197 90 -377 270 -467 468 -32 72 -78 237 -78 283 0 28 0 28 43
18 23 -5 112 -8 197 -6 149 4 157 5 209 33 133 73 177 222 106 354 l-27 50 19
28 c52 73 55 177 8 260 l-26 47 28 51 c39 70 40 169 2 236 l-25 45 60 86 c34
47 76 107 93 132 l33 46 79 0 79 0 33 -52z m1299 -543 l0 -505 -90 0 -90 0 -5
28 c-43 199 -126 367 -263 531 l-62 73 0 189 0 189 255 0 255 0 0 -505z
m-1824 231 c39 -33 39 -89 0 -122 -26 -23 -33 -24 -182 -24 l-156 0 -29 29
c-17 18 -29 40 -29 56 0 16 12 38 29 56 l29 29 156 0 c149 0 156 -1 182 -24z
m-22 -326 c32 -12 58 -62 50 -95 -3 -14 -18 -34 -31 -45 -23 -18 -41 -20 -180
-20 l-155 0 -29 29 c-16 16 -29 40 -29 53 0 30 26 67 54 78 29 12 289 12 320
0z m-1367 -318 l194 -97 -257 -3 c-278 -3 -283 -4 -305 -59 -18 -47 7 -77 211
-247 169 -141 200 -171 209 -203 24 -85 -34 -163 -121 -163 -46 0 -70 14 -212
129 -69 56 -137 106 -151 111 -38 14 -76 -6 -123 -66 -66 -84 -222 -174 -302
-174 l-30 0 0 268 0 269 243 150 c267 166 279 173 322 184 67 18 122 1 322
-99z m1363 -23 c22 -8 37 -22 46 -45 15 -37 11 -58 -19 -91 -20 -22 -27 -23
-182 -23 -148 0 -163 2 -183 20 -44 41 -35 110 18 137 32 16 274 17 320 2z
m-2420 -759 l0 -510 -255 0 -255 0 0 510 0 510 255 0 255 0 0 -510z m1880 466
c0 -24 7 -83 15 -132 61 -347 283 -652 586 -805 l79 -39 0 -828 c0 -818 0
-828 -20 -850 -11 -12 -31 -24 -43 -27 -12 -3 -453 -4 -980 -3 l-959 3 -19 24
c-18 23 -19 54 -19 1090 l1 1066 47 41 48 42 99 -81 c55 -44 124 -91 154 -105
145 -67 326 3 392 151 32 72 32 173 1 242 -28 61 -42 77 -160 176 l-93 79 435
0 436 0 0 -44z m-1540 -791 l0 -185 -85 0 -85 0 0 169 0 168 73 15 c39 8 78
16 85 17 9 1 12 -42 12 -184z"/>
<path d="M3587 3584 c-4 -4 -7 -24 -7 -45 0 -34 -3 -39 -27 -45 -87 -21 -167
-87 -204 -168 -28 -61 -25 -167 5 -231 40 -88 97 -127 259 -181 180 -59 195
-67 214 -112 19 -46 5 -101 -34 -131 -22 -18 -40 -21 -123 -21 -111 0 -139 13
-161 75 l-13 35 -83 0 -83 0 0 -29 c0 -103 110 -231 212 -247 37 -6 38 -7 38
-50 l0 -44 90 0 90 0 0 45 c0 37 3 45 19 45 65 0 160 72 200 151 56 112 38
234 -47 322 -48 50 -79 65 -237 117 -157 51 -190 76 -190 145 0 65 41 104 117
112 117 12 199 -22 213 -87 l7 -30 84 0 84 0 0 29 c0 40 -26 109 -57 149 -31
41 -103 89 -155 102 -34 10 -37 13 -40 53 l-3 42 -80 3 c-45 1 -84 0 -88 -4z"/>
<path d="M2158 2363 c-111 -92 -595 -509 -605 -521 -22 -26 -16 -86 10 -110
21 -20 34 -22 125 -22 l102 0 0 -219 c0 -121 4 -231 10 -246 19 -51 48 -55
418 -55 227 0 350 4 372 11 54 19 60 49 60 294 l0 215 100 0 c94 0 103 2 125
25 26 26 32 63 14 96 -5 11 -152 141 -325 289 -345 296 -342 295 -406 243z
m243 -328 l180 -155 -363 0 -363 0 35 29 c19 16 100 85 180 154 80 70 146 126
148 127 1 0 84 -70 183 -155z m69 -495 l0 -170 -85 0 -85 0 0 85 0 86 -82 -3
-83 -3 -3 -82 -3 -83 -84 0 -85 0 0 163 c0 90 3 167 7 170 3 4 118 7 255 7
l248 0 0 -170z"/>
<path d="M1362 938 l3 -83 258 -3 257 -2 0 85 0 85 -260 0 -261 0 3 -82z"/>
<path d="M2472 938 l3 -83 298 -3 297 -2 0 85 0 85 -300 0 -301 0 3 -82z"/>
<path d="M1362 598 l3 -83 258 -3 257 -2 0 85 0 85 -260 0 -261 0 3 -82z"/>
<path d="M2730 595 l0 -85 170 0 170 0 0 85 0 85 -170 0 -170 0 0 -85z"/>
<path d="M3580 1535 l0 -85 85 0 85 0 0 85 0 85 -85 0 -85 0 0 -85z"/>
<path d="M3580 1195 l0 -85 85 0 85 0 0 85 0 85 -85 0 -85 0 0 -85z"/>
<path d="M3580 770 l0 -170 85 0 85 0 0 170 0 170 -85 0 -85 0 0 -170z"/>
</g>
</svg>
