<?xml version="1.0" standalone="no"?>
<!DOCTYPE svg PUBLIC "-//W3C//DTD SVG 20010904//EN"
 "http://www.w3.org/TR/2001/REC-SVG-20010904/DTD/svg10.dtd">
<svg version="1.0" xmlns="http://www.w3.org/2000/svg"
 width="512.000000pt" height="512.000000pt" viewBox="0 0 512.000000 512.000000"
 preserveAspectRatio="xMidYMid meet">

<g transform="translate(0.000000,512.000000) scale(0.100000,-0.100000)"
fill="#000000" stroke="none">
<path d="M1782 4469 c-327 -58 -592 -296 -684 -616 -20 -66 -23 -101 -23 -233
1 -149 2 -159 33 -250 18 -52 34 -96 36 -97 1 -1 24 5 51 14 36 11 105 17 253
21 l203 4 -3 31 c-2 26 -9 33 -36 41 -44 12 -118 79 -143 128 -66 130 -4 299
132 358 63 26 162 25 220 -4 47 -22 103 -78 125 -125 26 -53 30 -152 9 -208
-23 -60 -89 -125 -148 -148 -40 -15 -47 -22 -47 -45 l0 -28 208 -4 c176 -4
217 -8 273 -26 108 -36 219 -119 281 -212 l16 -25 44 41 c62 58 96 80 157 98
48 14 144 16 804 16 564 0 760 3 791 12 53 16 118 81 134 134 15 51 16 205 1
259 -16 56 -168 208 -224 224 -26 7 -169 11 -405 11 -224 0 -380 4 -403 11
-25 7 -66 36 -121 88 -45 43 -94 85 -107 92 -17 10 -85 16 -234 20 -269 7
-292 15 -403 130 -191 197 -379 286 -622 294 -63 2 -139 0 -168 -6z"/>
<path d="M1656 3780 c-120 -36 -144 -214 -38 -281 l32 -21 0 79 c0 88 16 123
54 123 42 0 56 -29 56 -118 0 -45 4 -82 9 -82 5 0 25 15 44 33 83 77 64 208
-37 256 -45 22 -73 25 -120 11z"/>
<path d="M1223 3185 c-81 -22 -132 -52 -194 -115 -51 -51 -73 -88 -212 -367
-87 -175 -160 -333 -166 -362 -17 -81 -15 -1310 3 -1376 40 -151 160 -271 310
-311 41 -11 189 -14 741 -14 753 0 758 0 855 57 69 41 134 112 171 189 l34 69
0 702 0 702 -163 326 c-177 356 -209 403 -313 460 -98 53 -118 55 -584 54
-338 0 -441 -3 -482 -14z m951 -807 c21 -30 20 -44 -4 -68 -19 -19 -33 -20
-458 -20 -380 0 -440 2 -460 16 -27 19 -30 68 -4 83 11 7 179 11 464 11 l447
0 15 -22z m2 -433 c15 -23 15 -27 0 -50 l-16 -25 -453 0 c-339 0 -456 3 -465
12 -15 15 -15 61 0 76 9 9 126 12 465 12 l453 0 16 -25z m-6 -415 c24 -24 25
-38 4 -68 l-15 -22 -445 0 c-288 0 -452 4 -465 10 -27 15 -25 64 3 84 20 14
80 16 460 16 425 0 439 -1 458 -20z"/>
<path d="M2670 2796 c0 -4 41 -87 90 -186 54 -108 97 -207 106 -246 13 -56 14
-165 12 -737 l-3 -672 -25 -65 c-56 -143 -138 -233 -275 -300 -99 -49 -165
-60 -385 -60 l-165 0 120 -120 c134 -135 190 -170 304 -190 55 -10 83 -10 133
-1 140 27 130 19 666 554 272 271 506 510 521 532 96 138 97 341 3 477 -17 24
-237 248 -489 499 -387 385 -467 460 -513 481 -64 30 -100 42 -100 34z"/>
</g>
</svg>
